{"title":"Crush 2013 BRRip 720p x264 AAC - PRiSTiNE [P2PDL]","uid":8355441,"size":639734878,"categoryP":"video","categoryS":"hd___movies","magnet":"?xt=urn:btih:d01672b97aa5b9ab7d6ecb6b18f9564de0a946e2&amp;dn=Crush+2013+BRRip+720p+x264+AAC+-+PRiSTiNE+%5BP2PDL%5D&amp;tr=udp%3A%2F%2Ftracker.openbittorrent.com%3A80&amp;tr=udp%3A%2F%2Fopen.demonii.com%3A1337&amp;tr=udp%3A%2F%2Ftracker.coppersurfer.tk%3A6969&amp;tr=udp%3A%2F%2Fexodus.desync.com%3A6969","seeders":1,"leechers":0,"uploader":"ValidusVyto","files":-1,"time":1365481116,"description":"_________________________  Visit us at _________________________\n  &lt;a href=&quot;\nhttp://p2pdl.com&quot; rel=&quot;nofollow&quot; target=&quot;_NEW&quot;&gt;\nhttp://p2pdl.com&lt;/a&gt;  ____________________________ &lt;a href=&quot; http://p2pdl.com&quot; rel=&quot;nofollow&quot; target=&quot;_NEW&quot;&gt; http://p2pdl.com&lt;/a&gt;\n\n\nCrush 2013 BRRip 720p x264 AAC - PRiSTiNE\n\n\nGenre: Thriller \nPlot: A secret admirer's crush on a high school athlete takes a fatal turn. \nDirector: Malik Bader\nStars: Sarah Bolger, Lucas Till, Crystal Reed.\nRated: PG-13 for disturbing thematic material, violence, sensuality, some teen drinking, and language.\n\nInfo: &lt;a href=&quot;\nhttp://www.imdb.com/title/tt2093977/&quot; rel=&quot;nofollow&quot; target=&quot;_NEW&quot;&gt;\nhttp://www.imdb.com/title/tt2093977/&lt;/a&gt;\n\nTrailer:\n\n\nFormat                         : MPEG-4\nFile size                      : 600 MiB\nDuration                       : 1h 34mn\nOverall bit rate               : 885 Kbps\nVideo Format                   : AVC\nDuration                       : 1h 34mn\nBit rate                       : 803 Kbps\nWidth                          : 1 280 pixels\nHeight                         : 720 pixels\nDisplay aspect ratio           : 16:9\nFrame rate mode                : Constant\nFrame rate                     : 23.976 fps\nStream size                    : 544 MiB (91%)\nWriting library                : x264 core 130 r2273\nAudio Format                   : AAC\nBit rate                       : 80.0 Kbps\nChannel(s)                     : 2 channels\nChannel positions              : Front: L R\nSampling rate                  : 48.0 KHz\nStream size                    : 54.3 MiB (9%)\nSubtitle                       : N/a\nSource                         : 720p.BluRay.AC3-5.1.x264-AXED(Thanks)\n\nScreenshots:\n &lt;a href=&quot;\nhttp://img6.imageshack.us/img6/723/tinybaycrush2013brrip72.jpg&quot; rel=&quot;nofollow&quot; target=&quot;_NEW&quot;&gt;\nhttp://img6.imageshack.us/img6/723/tinybaycrush2013brrip72.jpg&lt;/a&gt;\n\n\n----------------------------------------------------------------------------------------------------\n\n\nEncoded using revolutionary 10bit encoding, which enables us to provide you more crispier \nand sharper images at small sizes, just make sure you follow our instructions without a fault.\nRecommend to you to use latest version of VLC player. Install K-Lite Codec Pack or shark007 codecs\nin case of any kind of problem in playback (For non-VLC Media Player users). Alternatively, install\nCore AVC codecs, the fastest decoder that there is coupled with Community Center Codec Pack and play\non Windows Media Player Classic. Check sample to be sure.\nEnjoy!\n\nEncoder Notes:Looking For Early Access To Anything You Can Provide DVDScr, R5, DVDR, BluRay, Direct\nAudio, Music Releases and Seedboxes. We require dedicated servers, so as to do more \nand fast releases of movies.\nIf You Got anything to offer please contact us at &quot;&lt;a class=&quot;__cf_email__&quot; href=&quot;/cdn-cgi/l/email-protection&quot; data-cfemail=&quot;e0909287a088959388ce838f8d&quot;&gt;[email&amp;#160;protected]&lt;/a&gt;&lt;script cf-hash='f9e31' type=&quot;text/javascript&quot;&gt;\n/* &lt;![CDATA[ */!function(){try{var t=&quot;currentScript&quot;in document?document.currentScript:function(){for(var t=document.getElementsByTagName(&quot;script&quot;),e=t.length;e--;)if(t[e].getAttribute(&quot;cf-hash&quot;))return t[e]}();if(t&amp;&amp;t.previousSibling){var e,r,n,i,c=t.previousSibling,a=c.getAttribute(&quot;data-cfemail&quot;);if(a){for(e=&quot;&quot;,r=parseInt(a.substr(0,2),16),n=2;a.length-n;n+=2)i=parseInt(a.substr(n,2),16)^r,e+=String.fromCharCode(i);e=document.createTextNode(e),c.parentNode.replaceChild(e,c)}}}catch(u){}}();/* ]]&gt; */&lt;/script&gt;&quot;.\n\nFace book Fan Page:   &lt;a href=&quot;\nhttp://www.fb.me/p2pdl&quot; rel=&quot;nofollow&quot; target=&quot;_NEW&quot;&gt;\nhttp://www.fb.me/p2pdl&lt;/a&gt;","torrent":{"xt":"urn:btih:d01672b97aa5b9ab7d6ecb6b18f9564de0a946e2","amp;dn":"Crush+2013+BRRip+720p+x264+AAC+-+PRiSTiNE+%5BP2PDL%5D","amp;tr":["udp%3A%2F%2Ftracker.openbittorrent.com%3A80","udp%3A%2F%2Fopen.demonii.com%3A1337","udp%3A%2F%2Ftracker.coppersurfer.tk%3A6969","udp%3A%2F%2Fexodus.desync.com%3A6969"],"infoHash":"d01672b97aa5b9ab7d6ecb6b18f9564de0a946e2","infoHashBuffer":{"type":"Buffer","data":[208,22,114,185,122,165,185,171,125,110,203,107,24,249,86,77,224,169,70,226]},"announce":[],"urlList":[]}}